<mxfile host="app.diagrams.net" modified="2023-05-12T18:54:49.222Z" agent="Mozilla/5.0 (Windows NT 10.0; Win64; x64) AppleWebKit/537.36 (KHTML, like Gecko) Chrome/113.0.0.0 Safari/537.36 Edg/113.0.1774.35" etag="scuGH3xGTxmoCZ6a4pRF" version="21.3.0" type="device">
  <diagram name="Pagina-1" id="z46neC1v2HSzV0G07LQI">
    <mxGraphModel dx="2314" dy="1148" grid="0" gridSize="10" guides="1" tooltips="1" connect="1" arrows="1" fold="1" page="1" pageScale="1" pageWidth="827" pageHeight="1169" math="0" shadow="0">
      <root>
        <mxCell id="0" />
        <mxCell id="1" parent="0" />
        <mxCell id="df2RwkZd0xKqGF4FhGg1-22" style="edgeStyle=orthogonalEdgeStyle;rounded=0;orthogonalLoop=1;jettySize=auto;html=1;exitX=1;exitY=0.5;exitDx=0;exitDy=0;entryX=1;entryY=0.5;entryDx=0;entryDy=0;" parent="1" source="df2RwkZd0xKqGF4FhGg1-4" target="df2RwkZd0xKqGF4FhGg1-23" edge="1">
          <mxGeometry relative="1" as="geometry">
            <mxPoint x="537" y="99" as="targetPoint" />
            <Array as="points">
              <mxPoint x="547" y="99" />
            </Array>
          </mxGeometry>
        </mxCell>
        <mxCell id="df2RwkZd0xKqGF4FhGg1-24" value="ch" style="edgeLabel;html=1;align=center;verticalAlign=middle;resizable=0;points=[];fontSize=12;fontFamily=Helvetica;fontColor=default;" parent="df2RwkZd0xKqGF4FhGg1-22" vertex="1" connectable="0">
          <mxGeometry x="-0.26" y="1" relative="1" as="geometry">
            <mxPoint as="offset" />
          </mxGeometry>
        </mxCell>
        <mxCell id="df2RwkZd0xKqGF4FhGg1-4" value="ch" style="rounded=0;whiteSpace=wrap;html=1;" parent="1" vertex="1">
          <mxGeometry x="117" y="79" width="70" height="40" as="geometry" />
        </mxCell>
        <mxCell id="df2RwkZd0xKqGF4FhGg1-7" style="edgeStyle=orthogonalEdgeStyle;rounded=0;orthogonalLoop=1;jettySize=auto;html=1;" parent="1" target="df2RwkZd0xKqGF4FhGg1-4" edge="1">
          <mxGeometry relative="1" as="geometry">
            <mxPoint x="47" y="99" as="sourcePoint" />
          </mxGeometry>
        </mxCell>
        <mxCell id="df2RwkZd0xKqGF4FhGg1-6" value="i_w" style="text;html=1;strokeColor=none;fillColor=none;align=center;verticalAlign=middle;whiteSpace=wrap;rounded=0;" parent="1" vertex="1">
          <mxGeometry x="7" y="86.5" width="40" height="25" as="geometry" />
        </mxCell>
        <mxCell id="df2RwkZd0xKqGF4FhGg1-9" style="edgeStyle=orthogonalEdgeStyle;rounded=0;orthogonalLoop=1;jettySize=auto;html=1;entryX=0.5;entryY=0;entryDx=0;entryDy=0;exitX=0.5;exitY=1;exitDx=0;exitDy=0;" parent="1" source="df2RwkZd0xKqGF4FhGg1-8" target="df2RwkZd0xKqGF4FhGg1-4" edge="1">
          <mxGeometry relative="1" as="geometry" />
        </mxCell>
        <mxCell id="df2RwkZd0xKqGF4FhGg1-8" value="sel_ch" style="text;html=1;strokeColor=none;fillColor=none;align=center;verticalAlign=middle;whiteSpace=wrap;rounded=0;" parent="1" vertex="1">
          <mxGeometry x="129.5" y="39" width="45" height="20" as="geometry" />
        </mxCell>
        <mxCell id="df2RwkZd0xKqGF4FhGg1-16" style="edgeStyle=orthogonalEdgeStyle;rounded=0;orthogonalLoop=1;jettySize=auto;html=1;entryX=0;entryY=0.5;entryDx=0;entryDy=0;" parent="1" source="df2RwkZd0xKqGF4FhGg1-10" target="df2RwkZd0xKqGF4FhGg1-15" edge="1">
          <mxGeometry relative="1" as="geometry" />
        </mxCell>
        <mxCell id="df2RwkZd0xKqGF4FhGg1-17" value="o_mem_addr" style="edgeLabel;html=1;align=center;verticalAlign=middle;resizable=0;points=[];" parent="df2RwkZd0xKqGF4FhGg1-16" vertex="1" connectable="0">
          <mxGeometry x="-0.0917" y="2" relative="1" as="geometry">
            <mxPoint as="offset" />
          </mxGeometry>
        </mxCell>
        <mxCell id="df2RwkZd0xKqGF4FhGg1-10" value="addr" style="rounded=0;whiteSpace=wrap;html=1;" parent="1" vertex="1">
          <mxGeometry x="117" y="179" width="70" height="40" as="geometry" />
        </mxCell>
        <mxCell id="df2RwkZd0xKqGF4FhGg1-13" style="edgeStyle=orthogonalEdgeStyle;rounded=0;orthogonalLoop=1;jettySize=auto;html=1;entryX=0.5;entryY=0;entryDx=0;entryDy=0;" parent="1" source="df2RwkZd0xKqGF4FhGg1-12" target="df2RwkZd0xKqGF4FhGg1-10" edge="1">
          <mxGeometry relative="1" as="geometry" />
        </mxCell>
        <mxCell id="df2RwkZd0xKqGF4FhGg1-12" value="sel_addr" style="text;html=1;strokeColor=none;fillColor=none;align=center;verticalAlign=middle;whiteSpace=wrap;rounded=0;" parent="1" vertex="1">
          <mxGeometry x="129.5" y="139" width="45" height="20" as="geometry" />
        </mxCell>
        <mxCell id="df2RwkZd0xKqGF4FhGg1-14" value="" style="endArrow=classic;html=1;rounded=0;" parent="1" edge="1">
          <mxGeometry width="50" height="50" relative="1" as="geometry">
            <mxPoint x="87" y="99" as="sourcePoint" />
            <mxPoint x="117" y="199" as="targetPoint" />
            <Array as="points">
              <mxPoint x="87" y="199" />
            </Array>
          </mxGeometry>
        </mxCell>
        <mxCell id="df2RwkZd0xKqGF4FhGg1-21" style="edgeStyle=orthogonalEdgeStyle;rounded=0;orthogonalLoop=1;jettySize=auto;html=1;entryX=0.5;entryY=0;entryDx=0;entryDy=0;" parent="1" source="df2RwkZd0xKqGF4FhGg1-15" target="df2RwkZd0xKqGF4FhGg1-23" edge="1">
          <mxGeometry relative="1" as="geometry">
            <mxPoint x="497" y="134" as="targetPoint" />
          </mxGeometry>
        </mxCell>
        <mxCell id="df2RwkZd0xKqGF4FhGg1-36" value="i_mem_data" style="edgeLabel;html=1;align=center;verticalAlign=middle;resizable=0;points=[];fontSize=12;fontFamily=Helvetica;fontColor=default;" parent="df2RwkZd0xKqGF4FhGg1-21" vertex="1" connectable="0">
          <mxGeometry x="-0.3895" y="-3" relative="1" as="geometry">
            <mxPoint x="1" as="offset" />
          </mxGeometry>
        </mxCell>
        <mxCell id="df2RwkZd0xKqGF4FhGg1-15" value="Memoria" style="rounded=0;whiteSpace=wrap;html=1;" parent="1" vertex="1">
          <mxGeometry x="277" y="425" width="120" height="60" as="geometry" />
        </mxCell>
        <mxCell id="df2RwkZd0xKqGF4FhGg1-19" style="edgeStyle=orthogonalEdgeStyle;rounded=0;orthogonalLoop=1;jettySize=auto;html=1;entryX=0.5;entryY=0;entryDx=0;entryDy=0;" parent="1" source="df2RwkZd0xKqGF4FhGg1-18" target="df2RwkZd0xKqGF4FhGg1-15" edge="1">
          <mxGeometry relative="1" as="geometry" />
        </mxCell>
        <mxCell id="df2RwkZd0xKqGF4FhGg1-18" value="o_mem_en" style="text;html=1;strokeColor=none;fillColor=none;align=center;verticalAlign=middle;whiteSpace=wrap;rounded=0;" parent="1" vertex="1">
          <mxGeometry x="322" y="346" width="30" height="20" as="geometry" />
        </mxCell>
        <mxCell id="df2RwkZd0xKqGF4FhGg1-23" value="" style="shape=trapezoid;perimeter=trapezoidPerimeter;whiteSpace=wrap;html=1;fixedSize=1;shadow=0;dashed=0;strokeColor=default;strokeWidth=1;fontFamily=Helvetica;fontSize=12;fontColor=default;fillColor=default;rotation=-90;" parent="1" vertex="1">
          <mxGeometry x="447" y="154" width="200" height="90" as="geometry" />
        </mxCell>
        <mxCell id="df2RwkZd0xKqGF4FhGg1-72" style="edgeStyle=orthogonalEdgeStyle;rounded=0;orthogonalLoop=1;jettySize=auto;html=1;entryX=0;entryY=0.5;entryDx=0;entryDy=0;fontFamily=Helvetica;fontSize=12;fontColor=default;" parent="1" source="df2RwkZd0xKqGF4FhGg1-25" target="df2RwkZd0xKqGF4FhGg1-91" edge="1">
          <mxGeometry relative="1" as="geometry" />
        </mxCell>
        <mxCell id="df2RwkZd0xKqGF4FhGg1-25" value="save_z0" style="rounded=0;whiteSpace=wrap;html=1;shadow=0;dashed=0;strokeColor=default;strokeWidth=1;fontFamily=Helvetica;fontSize=12;fontColor=default;fillColor=default;" parent="1" vertex="1">
          <mxGeometry x="627" y="114" width="50" height="30" as="geometry" />
        </mxCell>
        <mxCell id="df2RwkZd0xKqGF4FhGg1-27" value="" style="endArrow=classic;html=1;rounded=0;fontFamily=Helvetica;fontSize=12;fontColor=default;entryX=0;entryY=0.5;entryDx=0;entryDy=0;exitX=0.848;exitY=0.981;exitDx=0;exitDy=0;exitPerimeter=0;" parent="1" source="df2RwkZd0xKqGF4FhGg1-23" target="df2RwkZd0xKqGF4FhGg1-25" edge="1">
          <mxGeometry width="50" height="50" relative="1" as="geometry">
            <mxPoint x="597" y="129" as="sourcePoint" />
            <mxPoint x="447" y="154" as="targetPoint" />
          </mxGeometry>
        </mxCell>
        <mxCell id="df2RwkZd0xKqGF4FhGg1-73" style="edgeStyle=orthogonalEdgeStyle;rounded=0;orthogonalLoop=1;jettySize=auto;html=1;fontFamily=Helvetica;fontSize=12;fontColor=default;" parent="1" source="df2RwkZd0xKqGF4FhGg1-28" edge="1">
          <mxGeometry relative="1" as="geometry">
            <mxPoint x="705" y="179" as="targetPoint" />
          </mxGeometry>
        </mxCell>
        <mxCell id="df2RwkZd0xKqGF4FhGg1-28" value="save_z1" style="rounded=0;whiteSpace=wrap;html=1;shadow=0;dashed=0;strokeColor=default;strokeWidth=1;fontFamily=Helvetica;fontSize=12;fontColor=default;fillColor=default;" parent="1" vertex="1">
          <mxGeometry x="627" y="164" width="50" height="30" as="geometry" />
        </mxCell>
        <mxCell id="df2RwkZd0xKqGF4FhGg1-74" style="edgeStyle=orthogonalEdgeStyle;rounded=0;orthogonalLoop=1;jettySize=auto;html=1;entryX=0;entryY=0.5;entryDx=0;entryDy=0;fontFamily=Helvetica;fontSize=12;fontColor=default;" parent="1" source="df2RwkZd0xKqGF4FhGg1-29" target="df2RwkZd0xKqGF4FhGg1-93" edge="1">
          <mxGeometry relative="1" as="geometry" />
        </mxCell>
        <mxCell id="df2RwkZd0xKqGF4FhGg1-29" value="save_z2" style="rounded=0;whiteSpace=wrap;html=1;shadow=0;dashed=0;strokeColor=default;strokeWidth=1;fontFamily=Helvetica;fontSize=12;fontColor=default;fillColor=default;" parent="1" vertex="1">
          <mxGeometry x="627" y="214" width="50" height="30" as="geometry" />
        </mxCell>
        <mxCell id="df2RwkZd0xKqGF4FhGg1-75" style="edgeStyle=orthogonalEdgeStyle;rounded=0;orthogonalLoop=1;jettySize=auto;html=1;entryX=0;entryY=0.5;entryDx=0;entryDy=0;fontFamily=Helvetica;fontSize=12;fontColor=default;" parent="1" source="df2RwkZd0xKqGF4FhGg1-30" target="df2RwkZd0xKqGF4FhGg1-94" edge="1">
          <mxGeometry relative="1" as="geometry" />
        </mxCell>
        <mxCell id="df2RwkZd0xKqGF4FhGg1-30" value="save_z3" style="rounded=0;whiteSpace=wrap;html=1;shadow=0;dashed=0;strokeColor=default;strokeWidth=1;fontFamily=Helvetica;fontSize=12;fontColor=default;fillColor=default;" parent="1" vertex="1">
          <mxGeometry x="627" y="264" width="50" height="30" as="geometry" />
        </mxCell>
        <mxCell id="df2RwkZd0xKqGF4FhGg1-31" value="" style="endArrow=classic;html=1;rounded=0;fontFamily=Helvetica;fontSize=12;fontColor=default;entryX=0;entryY=0.5;entryDx=0;entryDy=0;exitX=0.848;exitY=0.981;exitDx=0;exitDy=0;exitPerimeter=0;" parent="1" edge="1">
          <mxGeometry width="50" height="50" relative="1" as="geometry">
            <mxPoint x="590" y="178.5" as="sourcePoint" />
            <mxPoint x="627" y="178.5" as="targetPoint" />
            <Array as="points">
              <mxPoint x="607" y="178.5" />
            </Array>
          </mxGeometry>
        </mxCell>
        <mxCell id="df2RwkZd0xKqGF4FhGg1-32" value="" style="endArrow=classic;html=1;rounded=0;fontFamily=Helvetica;fontSize=12;fontColor=default;entryX=0;entryY=0.5;entryDx=0;entryDy=0;exitX=0.848;exitY=0.981;exitDx=0;exitDy=0;exitPerimeter=0;" parent="1" edge="1">
          <mxGeometry width="50" height="50" relative="1" as="geometry">
            <mxPoint x="590" y="228.5" as="sourcePoint" />
            <mxPoint x="627" y="228.5" as="targetPoint" />
          </mxGeometry>
        </mxCell>
        <mxCell id="df2RwkZd0xKqGF4FhGg1-53" value="" style="rounded=0;whiteSpace=wrap;html=1;shadow=0;dashed=1;strokeColor=default;strokeWidth=1;fontFamily=Helvetica;fontSize=12;fontColor=default;fillColor=none;" parent="1" vertex="1">
          <mxGeometry x="617" y="89" width="70" height="220" as="geometry" />
        </mxCell>
        <mxCell id="df2RwkZd0xKqGF4FhGg1-33" value="" style="endArrow=classic;html=1;rounded=0;fontFamily=Helvetica;fontSize=12;fontColor=default;entryX=0;entryY=0.5;entryDx=0;entryDy=0;exitX=0.848;exitY=0.981;exitDx=0;exitDy=0;exitPerimeter=0;" parent="1" edge="1">
          <mxGeometry width="50" height="50" relative="1" as="geometry">
            <mxPoint x="590" y="278.5" as="sourcePoint" />
            <mxPoint x="627" y="278.5" as="targetPoint" />
          </mxGeometry>
        </mxCell>
        <mxCell id="df2RwkZd0xKqGF4FhGg1-55" style="edgeStyle=orthogonalEdgeStyle;rounded=0;orthogonalLoop=1;jettySize=auto;html=1;entryX=0.5;entryY=0;entryDx=0;entryDy=0;fontFamily=Helvetica;fontSize=12;fontColor=default;" parent="1" source="df2RwkZd0xKqGF4FhGg1-54" target="df2RwkZd0xKqGF4FhGg1-53" edge="1">
          <mxGeometry relative="1" as="geometry" />
        </mxCell>
        <mxCell id="df2RwkZd0xKqGF4FhGg1-54" value="sel_save" style="text;html=1;strokeColor=none;fillColor=none;align=center;verticalAlign=middle;whiteSpace=wrap;rounded=0;" parent="1" vertex="1">
          <mxGeometry x="629.5" y="49" width="45" height="20" as="geometry" />
        </mxCell>
        <mxCell id="df2RwkZd0xKqGF4FhGg1-69" style="edgeStyle=orthogonalEdgeStyle;rounded=0;orthogonalLoop=1;jettySize=auto;html=1;fontFamily=Helvetica;fontSize=12;fontColor=default;" parent="1" source="df2RwkZd0xKqGF4FhGg1-57" target="df2RwkZd0xKqGF4FhGg1-62" edge="1">
          <mxGeometry relative="1" as="geometry" />
        </mxCell>
        <mxCell id="df2RwkZd0xKqGF4FhGg1-57" value="" style="shape=trapezoid;perimeter=trapezoidPerimeter;whiteSpace=wrap;html=1;fixedSize=1;shadow=0;dashed=0;strokeColor=default;strokeWidth=1;fontFamily=Helvetica;fontSize=12;fontColor=default;fillColor=default;rotation=90;size=10;" parent="1" vertex="1">
          <mxGeometry x="697" y="116.5" width="50" height="25" as="geometry" />
        </mxCell>
        <mxCell id="df2RwkZd0xKqGF4FhGg1-68" style="edgeStyle=orthogonalEdgeStyle;rounded=0;orthogonalLoop=1;jettySize=auto;html=1;fontFamily=Helvetica;fontSize=12;fontColor=default;" parent="1" source="df2RwkZd0xKqGF4FhGg1-59" target="df2RwkZd0xKqGF4FhGg1-63" edge="1">
          <mxGeometry relative="1" as="geometry" />
        </mxCell>
        <mxCell id="df2RwkZd0xKqGF4FhGg1-59" value="" style="shape=trapezoid;perimeter=trapezoidPerimeter;whiteSpace=wrap;html=1;fixedSize=1;shadow=0;dashed=0;strokeColor=default;strokeWidth=1;fontFamily=Helvetica;fontSize=12;fontColor=default;fillColor=default;rotation=90;size=10;" parent="1" vertex="1">
          <mxGeometry x="697" y="166.5" width="50" height="25" as="geometry" />
        </mxCell>
        <mxCell id="df2RwkZd0xKqGF4FhGg1-66" style="edgeStyle=orthogonalEdgeStyle;rounded=0;orthogonalLoop=1;jettySize=auto;html=1;fontFamily=Helvetica;fontSize=12;fontColor=default;" parent="1" source="df2RwkZd0xKqGF4FhGg1-60" target="df2RwkZd0xKqGF4FhGg1-64" edge="1">
          <mxGeometry relative="1" as="geometry" />
        </mxCell>
        <mxCell id="df2RwkZd0xKqGF4FhGg1-60" value="" style="shape=trapezoid;perimeter=trapezoidPerimeter;whiteSpace=wrap;html=1;fixedSize=1;shadow=0;dashed=0;strokeColor=default;strokeWidth=1;fontFamily=Helvetica;fontSize=12;fontColor=default;fillColor=default;rotation=90;size=10;" parent="1" vertex="1">
          <mxGeometry x="697" y="216.5" width="50" height="25" as="geometry" />
        </mxCell>
        <mxCell id="df2RwkZd0xKqGF4FhGg1-67" style="edgeStyle=orthogonalEdgeStyle;rounded=0;orthogonalLoop=1;jettySize=auto;html=1;fontFamily=Helvetica;fontSize=12;fontColor=default;" parent="1" source="df2RwkZd0xKqGF4FhGg1-61" target="df2RwkZd0xKqGF4FhGg1-65" edge="1">
          <mxGeometry relative="1" as="geometry" />
        </mxCell>
        <mxCell id="df2RwkZd0xKqGF4FhGg1-61" value="" style="shape=trapezoid;perimeter=trapezoidPerimeter;whiteSpace=wrap;html=1;fixedSize=1;shadow=0;dashed=0;strokeColor=default;strokeWidth=1;fontFamily=Helvetica;fontSize=12;fontColor=default;fillColor=default;rotation=90;size=10;" parent="1" vertex="1">
          <mxGeometry x="697" y="266.5" width="50" height="25" as="geometry" />
        </mxCell>
        <mxCell id="df2RwkZd0xKqGF4FhGg1-62" value="o_z0" style="text;html=1;strokeColor=none;fillColor=none;align=center;verticalAlign=middle;whiteSpace=wrap;rounded=0;fontSize=12;fontFamily=Helvetica;fontColor=default;" parent="1" vertex="1">
          <mxGeometry x="767" y="114" width="60" height="30" as="geometry" />
        </mxCell>
        <mxCell id="df2RwkZd0xKqGF4FhGg1-63" value="o_z1" style="text;html=1;strokeColor=none;fillColor=none;align=center;verticalAlign=middle;whiteSpace=wrap;rounded=0;fontSize=12;fontFamily=Helvetica;fontColor=default;" parent="1" vertex="1">
          <mxGeometry x="767" y="164" width="60" height="30" as="geometry" />
        </mxCell>
        <mxCell id="df2RwkZd0xKqGF4FhGg1-64" value="o_z2" style="text;html=1;strokeColor=none;fillColor=none;align=center;verticalAlign=middle;whiteSpace=wrap;rounded=0;fontSize=12;fontFamily=Helvetica;fontColor=default;" parent="1" vertex="1">
          <mxGeometry x="767" y="214" width="60" height="30" as="geometry" />
        </mxCell>
        <mxCell id="df2RwkZd0xKqGF4FhGg1-65" value="o_z3" style="text;html=1;strokeColor=none;fillColor=none;align=center;verticalAlign=middle;whiteSpace=wrap;rounded=0;fontSize=12;fontFamily=Helvetica;fontColor=default;" parent="1" vertex="1">
          <mxGeometry x="767" y="264" width="60" height="30" as="geometry" />
        </mxCell>
        <mxCell id="df2RwkZd0xKqGF4FhGg1-76" value="" style="rounded=0;whiteSpace=wrap;html=1;shadow=0;dashed=1;strokeColor=default;strokeWidth=1;fontFamily=Helvetica;fontSize=12;fontColor=default;fillColor=none;" parent="1" vertex="1">
          <mxGeometry x="694.5" y="89" width="50" height="220" as="geometry" />
        </mxCell>
        <mxCell id="df2RwkZd0xKqGF4FhGg1-79" style="edgeStyle=orthogonalEdgeStyle;rounded=0;orthogonalLoop=1;jettySize=auto;html=1;entryX=0.5;entryY=1;entryDx=0;entryDy=0;fontFamily=Helvetica;fontSize=12;fontColor=default;" parent="1" source="df2RwkZd0xKqGF4FhGg1-78" target="df2RwkZd0xKqGF4FhGg1-76" edge="1">
          <mxGeometry relative="1" as="geometry" />
        </mxCell>
        <mxCell id="df2RwkZd0xKqGF4FhGg1-78" value="sel_done" style="text;html=1;strokeColor=none;fillColor=none;align=center;verticalAlign=middle;whiteSpace=wrap;rounded=0;" parent="1" vertex="1">
          <mxGeometry x="537" y="359" width="60" height="20" as="geometry" />
        </mxCell>
        <mxCell id="df2RwkZd0xKqGF4FhGg1-80" value="" style="endArrow=classic;html=1;rounded=0;fontFamily=Helvetica;fontSize=12;fontColor=default;exitX=1;exitY=0.5;exitDx=0;exitDy=0;" parent="1" source="df2RwkZd0xKqGF4FhGg1-78" edge="1">
          <mxGeometry width="50" height="50" relative="1" as="geometry">
            <mxPoint x="437" y="279" as="sourcePoint" />
            <mxPoint x="767" y="369" as="targetPoint" />
          </mxGeometry>
        </mxCell>
        <mxCell id="df2RwkZd0xKqGF4FhGg1-81" value="o_done" style="text;html=1;strokeColor=none;fillColor=none;align=center;verticalAlign=middle;whiteSpace=wrap;rounded=0;fontSize=12;fontFamily=Helvetica;fontColor=default;" parent="1" vertex="1">
          <mxGeometry x="767" y="354" width="60" height="30" as="geometry" />
        </mxCell>
        <mxCell id="4b4NJ4sCWoDTaszdv9sN-10" style="edgeStyle=orthogonalEdgeStyle;rounded=0;orthogonalLoop=1;jettySize=auto;html=1;entryX=0.5;entryY=0;entryDx=0;entryDy=0;" edge="1" parent="1" source="df2RwkZd0xKqGF4FhGg1-82" target="df2RwkZd0xKqGF4FhGg1-76">
          <mxGeometry relative="1" as="geometry" />
        </mxCell>
        <mxCell id="df2RwkZd0xKqGF4FhGg1-82" value="0...0" style="text;html=1;strokeColor=none;fillColor=none;align=center;verticalAlign=middle;whiteSpace=wrap;rounded=0;fontSize=12;fontFamily=Helvetica;fontColor=default;" parent="1" vertex="1">
          <mxGeometry x="692" y="49" width="55" height="20" as="geometry" />
        </mxCell>
        <mxCell id="df2RwkZd0xKqGF4FhGg1-86" value="00" style="text;html=1;strokeColor=none;fillColor=none;align=center;verticalAlign=middle;whiteSpace=wrap;rounded=0;fontSize=12;fontFamily=Helvetica;fontColor=default;" parent="1" vertex="1">
          <mxGeometry x="567" y="119" width="20" height="20" as="geometry" />
        </mxCell>
        <mxCell id="df2RwkZd0xKqGF4FhGg1-87" value="01" style="text;html=1;strokeColor=none;fillColor=none;align=center;verticalAlign=middle;whiteSpace=wrap;rounded=0;fontSize=12;fontFamily=Helvetica;fontColor=default;" parent="1" vertex="1">
          <mxGeometry x="567" y="169" width="20" height="20" as="geometry" />
        </mxCell>
        <mxCell id="df2RwkZd0xKqGF4FhGg1-88" value="10" style="text;html=1;strokeColor=none;fillColor=none;align=center;verticalAlign=middle;whiteSpace=wrap;rounded=0;fontSize=12;fontFamily=Helvetica;fontColor=default;" parent="1" vertex="1">
          <mxGeometry x="567" y="221.5" width="20" height="20" as="geometry" />
        </mxCell>
        <mxCell id="df2RwkZd0xKqGF4FhGg1-90" value="11" style="text;html=1;strokeColor=none;fillColor=none;align=center;verticalAlign=middle;whiteSpace=wrap;rounded=0;fontSize=12;fontFamily=Helvetica;fontColor=default;" parent="1" vertex="1">
          <mxGeometry x="567" y="269" width="20" height="20" as="geometry" />
        </mxCell>
        <mxCell id="df2RwkZd0xKqGF4FhGg1-91" value="1" style="text;html=1;strokeColor=none;fillColor=none;align=center;verticalAlign=middle;whiteSpace=wrap;rounded=0;fontSize=12;fontFamily=Helvetica;fontColor=default;" parent="1" vertex="1">
          <mxGeometry x="707" y="124" width="15" height="10" as="geometry" />
        </mxCell>
        <mxCell id="df2RwkZd0xKqGF4FhGg1-92" value="1" style="text;html=1;strokeColor=none;fillColor=none;align=center;verticalAlign=middle;whiteSpace=wrap;rounded=0;fontSize=12;fontFamily=Helvetica;fontColor=default;" parent="1" vertex="1">
          <mxGeometry x="707" y="174" width="15" height="10" as="geometry" />
        </mxCell>
        <mxCell id="df2RwkZd0xKqGF4FhGg1-93" value="1" style="text;html=1;strokeColor=none;fillColor=none;align=center;verticalAlign=middle;whiteSpace=wrap;rounded=0;fontSize=12;fontFamily=Helvetica;fontColor=default;" parent="1" vertex="1">
          <mxGeometry x="707" y="224" width="15" height="10" as="geometry" />
        </mxCell>
        <mxCell id="df2RwkZd0xKqGF4FhGg1-94" value="1" style="text;html=1;strokeColor=none;fillColor=none;align=center;verticalAlign=middle;whiteSpace=wrap;rounded=0;fontSize=12;fontFamily=Helvetica;fontColor=default;" parent="1" vertex="1">
          <mxGeometry x="707" y="274" width="15" height="10" as="geometry" />
        </mxCell>
        <mxCell id="df2RwkZd0xKqGF4FhGg1-96" value="0" style="text;html=1;strokeColor=none;fillColor=none;align=center;verticalAlign=middle;whiteSpace=wrap;rounded=0;fontSize=12;fontFamily=Helvetica;fontColor=default;" parent="1" vertex="1">
          <mxGeometry x="714.5" y="111.5" width="15" height="10" as="geometry" />
        </mxCell>
        <mxCell id="df2RwkZd0xKqGF4FhGg1-99" value="0" style="text;html=1;strokeColor=none;fillColor=none;align=center;verticalAlign=middle;whiteSpace=wrap;rounded=0;fontSize=12;fontFamily=Helvetica;fontColor=default;" parent="1" vertex="1">
          <mxGeometry x="714.5" y="159" width="15" height="10" as="geometry" />
        </mxCell>
        <mxCell id="df2RwkZd0xKqGF4FhGg1-100" value="0" style="text;html=1;strokeColor=none;fillColor=none;align=center;verticalAlign=middle;whiteSpace=wrap;rounded=0;fontSize=12;fontFamily=Helvetica;fontColor=default;" parent="1" vertex="1">
          <mxGeometry x="714.5" y="211.5" width="15" height="10" as="geometry" />
        </mxCell>
        <mxCell id="df2RwkZd0xKqGF4FhGg1-101" value="0" style="text;html=1;strokeColor=none;fillColor=none;align=center;verticalAlign=middle;whiteSpace=wrap;rounded=0;fontSize=12;fontFamily=Helvetica;fontColor=default;" parent="1" vertex="1">
          <mxGeometry x="714.5" y="259" width="15" height="10" as="geometry" />
        </mxCell>
        <mxCell id="df2RwkZd0xKqGF4FhGg1-102" value="" style="endArrow=none;html=1;rounded=0;fontFamily=Helvetica;fontSize=12;fontColor=default;" parent="1" edge="1">
          <mxGeometry width="50" height="50" relative="1" as="geometry">
            <mxPoint x="217" y="231.5" as="sourcePoint" />
            <mxPoint x="247" y="209" as="targetPoint" />
          </mxGeometry>
        </mxCell>
        <mxCell id="df2RwkZd0xKqGF4FhGg1-103" value="16 bit" style="text;html=1;strokeColor=none;fillColor=none;align=center;verticalAlign=middle;whiteSpace=wrap;rounded=0;fontSize=12;fontFamily=Helvetica;fontColor=default;" parent="1" vertex="1">
          <mxGeometry x="237" y="216.5" width="40" height="15" as="geometry" />
        </mxCell>
        <mxCell id="df2RwkZd0xKqGF4FhGg1-104" value="2 bit" style="text;html=1;strokeColor=none;fillColor=none;align=center;verticalAlign=middle;whiteSpace=wrap;rounded=0;fontSize=12;fontFamily=Helvetica;fontColor=default;" parent="1" vertex="1">
          <mxGeometry x="237" y="106.5" width="40" height="15" as="geometry" />
        </mxCell>
        <mxCell id="df2RwkZd0xKqGF4FhGg1-106" value="" style="endArrow=none;html=1;rounded=0;fontFamily=Helvetica;fontSize=12;fontColor=default;" parent="1" edge="1">
          <mxGeometry width="50" height="50" relative="1" as="geometry">
            <mxPoint x="227" y="111.5" as="sourcePoint" />
            <mxPoint x="257" y="89" as="targetPoint" />
          </mxGeometry>
        </mxCell>
        <mxCell id="df2RwkZd0xKqGF4FhGg1-108" value="" style="endArrow=none;html=1;rounded=0;fontFamily=Helvetica;fontSize=12;fontColor=default;" parent="1" edge="1">
          <mxGeometry width="50" height="50" relative="1" as="geometry">
            <mxPoint x="437" y="290.25" as="sourcePoint" />
            <mxPoint x="467" y="267.75" as="targetPoint" />
          </mxGeometry>
        </mxCell>
        <mxCell id="df2RwkZd0xKqGF4FhGg1-110" value="8 bit" style="text;html=1;strokeColor=none;fillColor=none;align=center;verticalAlign=middle;whiteSpace=wrap;rounded=0;fontSize=12;fontFamily=Helvetica;fontColor=default;" parent="1" vertex="1">
          <mxGeometry x="449" y="276.5" width="40" height="15" as="geometry" />
        </mxCell>
        <mxCell id="df2RwkZd0xKqGF4FhGg1-113" value="" style="rounded=0;whiteSpace=wrap;html=1;shadow=0;dashed=1;strokeColor=default;strokeWidth=1;fontFamily=Helvetica;fontSize=12;fontColor=default;fillColor=none;" parent="1" vertex="1">
          <mxGeometry x="67" y="36" width="684" height="353" as="geometry" />
        </mxCell>
      </root>
    </mxGraphModel>
  </diagram>
</mxfile>
